# xmcd
# 
# Track frame offsets:
#     150
#     45719
#     79104
#     99189
#     128844
#     150504
#     168729
#     191719
#     215994
#     232554
# 
# Disc length: 3300
# 
# Revision: 1
# Processed by: cddbd v1.5.2PL0 Copyright (c) Steve Scherf et al.
# Submitted via: fre:ac v1.0.17
# 
DISCID=7c0ce20a
DTITLE=Thomas Kinkade - Quiet Moods - Disc 2
DYEAR=2007
DGENRE=Meditation
TTITLE0=Magic Mountain
TTITLE1=Mountain Spirt
TTITLE2=A walk In The Meadow
TTITLE3=Gazing Skyward
TTITLE4=Simple Gifts
TTITLE5=Gentle Breeze
TTITLE6=Valley Of Clover
TTITLE7=Quiet Meadow
TTITLE8=Spring Song
TTITLE9=Seed For The Sower
EXTD=YEAR: 2007
EXTT0=
EXTT1=
EXTT2=
EXTT3=
EXTT4=
EXTT5=
EXTT6=
EXTT7=
EXTT8=
EXTT9=
PLAYORDER=
